<svg xmlns="http://www.w3.org/2000/svg" viewBox="0 0 720 380">
  <defs>
    <linearGradient id="hero-sky" x1="0" y1="0" x2="0" y2="1"><stop stop-color="#dceffc"/><stop offset=".52" stop-color="#fff4e7"/><stop offset="1" stop-color="#f6d9cb"/></linearGradient>
    <linearGradient id="hero-garden" x1="0" y1="0" x2="1" y2="1"><stop stop-color="#b7d5b0"/><stop offset="1" stop-color="#f3c5ca"/></linearGradient>
    <linearGradient id="hero-dress" x1="0" y1="0" x2="0" y2="1"><stop stop-color="#f3a8b6"/><stop offset="1" stop-color="#cc667d"/></linearGradient>
    <linearGradient id="hero-shirt" x1="0" y1="0" x2="0" y2="1"><stop stop-color="#fff4e9"/><stop offset="1" stop-color="#dbbfa9"/></linearGradient>
    <filter id="hero-glow" x="-30%" y="-30%" width="160%" height="160%"><feGaussianBlur stdDeviation="8"/></filter>
  </defs>
  <rect width="720" height="380" rx="42" fill="url(#hero-sky)"/>
  <circle cx="576" cy="77" r="45" fill="#fff5bd" opacity=".72" filter="url(#hero-glow)"/>
  <path d="M110 292V126c0-70 50-104 105-104h290c55 0 105 34 105 104v166" fill="none" stroke="#fffdf8" stroke-width="18" opacity=".8"/>
  <path d="M0 265c102-46 194-40 274 4 87 48 174 48 261 1 62-33 124-33 185-4v114H0Z" fill="url(#hero-garden)" opacity=".78"/>
  <g opacity=".88">
    <path d="M42 287c8-82 40-136 96-165-17 59-12 111 15 156" fill="#8bb38b"/>
    <path d="M678 291c-5-86-40-141-103-171 23 64 17 117-18 159" fill="#91b78f"/>
    <g fill="#f19cac"><circle cx="76" cy="222" r="17"/><circle cx="51" cy="242" r="12"/><circle cx="103" cy="252" r="14"/><circle cx="646" cy="224" r="17"/><circle cx="677" cy="249" r="12"/><circle cx="615" cy="258" r="14"/></g>
    <g fill="#fff1b9"><circle cx="83" cy="218" r="6"/><circle cx="648" cy="221" r="6"/><circle cx="52" cy="240" r="5"/><circle cx="677" cy="247" r="5"/></g>
  </g>
  <g transform="translate(184 53)">
    <ellipse cx="120" cy="115" rx="76" ry="84" fill="#f1c3a6"/>
    <path d="M44 115C36 44 72 1 126 1c53 0 82 38 72 101-26-34-55-48-88-47-17 24-39 44-66 60Z" fill="#493b36"/>
    <circle cx="92" cy="120" r="6" fill="#4d3b36"/><circle cx="147" cy="120" r="6" fill="#4d3b36"/>
    <path d="M105 151c10 8 20 8 30 0" fill="none" stroke="#a56661" stroke-width="4" stroke-linecap="round"/>
    <path d="M32 319c8-88 36-132 88-132s82 44 94 132Z" fill="url(#hero-shirt)"/>
    <path d="m99 201 21 18 22-18 12 27-34 21-33-21Z" fill="#ef9daa"/>
  </g>
  <g transform="translate(354 62)">
    <ellipse cx="113" cy="113" rx="72" ry="82" fill="#f3c5aa"/>
    <path d="M39 127C30 56 57 10 112 9c58-1 88 48 75 124l-21-27c-5-20-14-38-29-52-24 27-55 43-98 48Z" fill="#503d39"/>
    <circle cx="86" cy="118" r="6" fill="#4d3b36"/><circle cx="140" cy="118" r="6" fill="#4d3b36"/>
    <path d="M99 150c10 8 20 8 30 0" fill="none" stroke="#a56661" stroke-width="4" stroke-linecap="round"/>
    <path d="M25 310c10-82 39-123 88-123s79 41 90 123Z" fill="url(#hero-dress)"/>
    <path d="M112 25C87-4 54 8 58 36c3 24 35 32 54 36 19-4 51-12 54-36 4-28-29-40-54-11Z" fill="#db6579"/>
    <circle cx="112" cy="42" r="13" fill="#f2a5b0"/>
  </g>
  <g transform="translate(92 254)">
    <ellipse cx="45" cy="65" rx="45" ry="34" fill="#313033"/><circle cx="44" cy="30" r="30" fill="#313033"/>
    <path d="m19 12 8-23 13 20M68 12 61-11 48 9" fill="#313033"/>
    <circle cx="34" cy="29" r="5" fill="#f3c761"/><circle cx="54" cy="29" r="5" fill="#f3c761"/>
    <path d="m44 40 6 5-6 5-6-5Z" fill="#e99aaa"/><path d="M82 64c28-35 57-12 41 15" fill="none" stroke="#313033" stroke-width="12" stroke-linecap="round"/>
    <path d="m25 52 19 13 20-13-5 25H30Z" fill="#d9657a"/>
  </g>
  <g fill="#fff9d5"><path d="m84 71 5 13 13 5-13 5-5 13-5-13-13-5 13-5Z"/><path d="m636 95 4 10 10 4-10 4-4 10-4-10-10-4 10-4Z"/><circle cx="171" cy="51" r="5"/><circle cx="567" cy="46" r="4"/></g>
</svg>
